<?xml version="1.0" encoding="UTF-8" standalone="no"?>
<svg
   xmlns:dc="http://purl.org/dc/elements/1.1/"
   xmlns:cc="http://creativecommons.org/ns#"
   xmlns:rdf="http://www.w3.org/1999/02/22-rdf-syntax-ns#"
   xmlns:svg="http://www.w3.org/2000/svg"
   xmlns="http://www.w3.org/2000/svg"
   xmlns:xlink="http://www.w3.org/1999/xlink"
   xmlns:sodipodi="http://sodipodi.sourceforge.net/DTD/sodipodi-0.dtd"
   xmlns:inkscape="http://www.inkscape.org/namespaces/inkscape"
   width="1000"
   height="1000"
   viewBox="0 0 1000 999.99998"
   version="1.1"
   id="svg42"
   sodipodi:docname="Liberty_Global_(2018).svg"
   inkscape:version="0.92.3 (2405546, 2018-03-11)">
  <metadata
     id="metadata46">
    <rdf:RDF>
      <cc:Work
         rdf:about="">
        <dc:format>image/svg+xml</dc:format>
        <dc:type
           rdf:resource="http://purl.org/dc/dcmitype/StillImage" />
        <dc:title />
      </cc:Work>
    </rdf:RDF>
  </metadata>
  <sodipodi:namedview
     pagecolor="#ffffff"
     bordercolor="#666666"
     borderopacity="1"
     objecttolerance="10"
     gridtolerance="10"
     guidetolerance="10"
     inkscape:pageopacity="0"
     inkscape:pageshadow="2"
     inkscape:window-width="1366"
     inkscape:window-height="705"
     id="namedview44"
     showgrid="false"
     fit-margin-top="0"
     fit-margin-left="0"
     fit-margin-right="0"
     fit-margin-bottom="0"
     inkscape:zoom="0.35355339"
     inkscape:cx="414.58433"
     inkscape:cy="548.10304"
     inkscape:window-x="-8"
     inkscape:window-y="-8"
     inkscape:window-maximized="1"
     inkscape:current-layer="g935" />
  <defs
     id="defs4">
    <polygon
       id="liberty-logo-orange-a"
       points="0,122.984 0,0.165 123.833,0.165 123.833,122.984 " />
    <polygon
       id="liberty-logo-orange-c"
       points="0,0.333 0,123.152 123.833,123.152 123.833,0.333 " />
  </defs>
  <g
     id="g40"
     style="fill:#808000;fill-rule:evenodd"
     transform="translate(3.3604334e-5,876.85026)"
     inkscape:label="g40">
    <mask
       id="liberty-logo-orange-d"
       fill="#fff">
      <use
         xlink:href="#liberty-logo-orange-c"
         id="use15"
         x="0"
         y="0"
         width="100%"
         height="100%" />
    </mask>
    <g
       id="g935"
       style="opacity:1;fill:#d45500"
       transform="matrix(8.0753708,0,0,8.1421094,2.3776314e-4,-879.56357)">
      <g
         id="g151">
        <path
           inkscape:label="path38"
           inkscape:connector-curvature="0"
           id="path38"
           d="m 61.916628,123.15154 c 34.1951,0 61.916662,-27.492002 61.916662,-61.409148 C 123.83329,27.82758 96.111728,0.33324464 61.916628,0.33324464 27.721191,0.33324464 -3.3604336e-5,27.82758 -3.3604336e-5,61.742392 -3.3604336e-5,95.659538 27.721191,123.15154 61.916628,123.15154"
           style="fill:#d45500" />
        <g
           id="g125">
          <g
             id="g93"
             style="fill:#ffffff">
            <path
               inkscape:connector-curvature="0"
               id="path18"
               d="m 30.213,73.523 h 2.237 v 9.403 h 4.65 v 1.937 h -6.887 z"
               style="fill:#ffffff" />
            <path
               inkscape:label="path20"
               inkscape:connector-curvature="0"
               id="path20"
               d="m 38.969,84.863 h 2.237 V 73.524 h -2.237 z"
               style="fill:#ffffff" />
            <path
               inkscape:connector-curvature="0"
               id="path22"
               transform="matrix(0.12383332,0,0,0.1228183,-3.3604336e-5,0.33324411)"
               d="m 384.08984,594.48633 c -8.3147,0 -20.21357,1.14307 -28.95703,2.4375 v 90.60742 c 8.89271,1.29171 21.07875,2.14844 29.09766,2.14844 23.22905,0 37.13476,-7.45109 37.13476,-27.66797 0,-11.89675 -4.73256,-18.78221 -15.19921,-22.08203 v -0.56641 c 7.74754,-2.86835 13.04882,-8.89638 13.04882,-19.78906 0,-17.9184 -14.19443,-25.08789 -35.125,-25.08789 z m -0.14648,15.76758 c 10.33368,0 16.91992,1.86869 16.91992,11.89843 0,8.75161 -4.87319,11.75782 -13.9043,11.75782 h -13.76171 v -23.07813 c 4.15734,-0.42876 7.8886,-0.57812 10.74609,-0.57812 z m -10.74609,37.99023 h 14.47461 c 9.89677,0 15.3496,3.44442 15.3496,12.9043 0,10.90354 -7.17236,12.91211 -18.50195,12.91211 -3.00404,0 -6.87727,-0.14936 -11.32226,-0.57813 z"
               style="fill:#ffffff;stroke-width:8.10867119" />
            <path
               inkscape:connector-curvature="0"
               id="path28"
               d="m 54.493,73.523 h 6.959 V 75.46 H 56.73 v 2.641 h 4.012 v 1.901 H 56.73 v 2.924 h 4.722 v 1.937 h -6.959 z"
               style="fill:#ffffff" />
            <path
               inkscape:connector-curvature="0"
               id="path30"
               transform="matrix(0.12383332,0,0,0.1228183,-3.3604336e-5,0.33324411)"
               d="m 544.60352,594.62695 c -9.45987,0 -22.21252,1.44077 -29.38477,2.58594 v 91.03516 h 18.06445 v -36.13282 c 3.15329,0.43691 7.02185,0.72461 11.32032,0.72461 5.1614,10.89541 11.75934,23.79911 18.20703,35.40821 h 21.22656 l 0.13867,-0.29102 c -7.45718,-12.61315 -15.47987,-26.66064 -20.93164,-37.99023 10.03788,-3.72317 17.06055,-11.75861 17.06055,-26.66211 0,-21.79352 -15.05282,-28.67774 -35.70117,-28.67774 z m -0.28711,15.63086 c 11.19119,0 17.63867,3.01107 17.63867,14.19141 0,11.32145 -6.44727,14.33398 -17.91797,14.33398 -2.43688,0 -7.31297,-0.13462 -10.75391,-0.57422 v -27.37695 c 3.15329,-0.29035 7.60041,-0.57422 11.03321,-0.57422 z"
               style="fill:#ffffff;stroke-width:8.10867119" />
            <path
               inkscape:label="path34"
               inkscape:connector-curvature="0"
               id="path34"
               d="m 76.639,75.46 h -3.195 v -1.936 h 8.628 v 1.936 h -3.196 v 9.403 h -2.237 z"
               style="fill:#ffffff" />
            <path
               inkscape:connector-curvature="0"
               id="path39"
               d="m 87.460023,80.619087 c -1.437594,-2.271031 -2.769334,-4.578056 -3.941117,-7.096054 h 2.432282 c 0.799111,1.743101 1.687274,3.415878 2.627187,5.018997 h 0.07158 c 0.941258,-1.603119 1.828076,-3.275896 2.626515,-5.018997 h 2.344239 c -1.171448,2.517998 -2.485713,4.825023 -3.923643,7.096054 v 4.243101 h -2.23704 z"
               style="fill:#ffffff" />
          </g>
          <g
             id="g101">
            <path
               inkscape:connector-curvature="0"
               id="path36"
               d="m 38.076569,92.704409 c 0,-2.720304 1.067274,-4.395414 4.134342,-4.395414 0.783653,0 1.594525,0.106986 2.310298,0.254633 l -0.216076,1.433809 c -0.621344,-0.107319 -1.485984,-0.214305 -2.094222,-0.214305 -2.026678,0 -2.405063,1.165845 -2.405063,2.907946 0,1.67511 0.378385,3.028596 2.107664,3.028596 0.33806,0 0.851534,-0.05366 1.216477,-0.160978 v -3.0016 h 1.70206 v 4.006799 c -0.810537,0.388615 -1.904694,0.643248 -2.94542,0.643248 -2.756228,0 -3.81006,-1.809093 -3.81006,-4.502734"
               style="fill:#ffffff" />
            <path
               inkscape:connector-curvature="0"
               id="path41"
               d="m 46.89,88.443 h 1.703 v 7.156 h 3.54 v 1.474 H 46.89 Z"
               style="fill:#ffffff" />
            <path
               inkscape:connector-curvature="0"
               d="m 57.021518,88.308829 c 2.783447,0 3.796617,1.594787 3.796617,4.44974 0,2.853953 -1.01317,4.448407 -3.796617,4.448407 -2.783448,0 -3.796618,-1.594454 -3.796618,-4.448407 0,-2.854953 1.01317,-4.44974 3.796618,-4.44974 m 0,7.42401 c 1.675176,0 2.067338,-1.045194 2.067338,-2.97427 0,-1.929743 -0.392162,-2.975603 -2.067338,-2.975603 -1.675513,0 -2.067003,1.04586 -2.067003,2.975603 0,1.929076 0.39149,2.97427 2.067003,2.97427"
               style="fill:#ffffff"
               id="path55" />
            <path
               inkscape:label="path47"
               inkscape:connector-curvature="0"
               id="path47"
               transform="matrix(0.12383332,0,0,0.1228183,-3.3604336e-5,0.33324411)"
               d="m 528.33203,716.30664 c -6.331,0 -15.38632,0.87584 -22.04297,1.85547 v 68.95703 c 6.7652,0.98232 16.0392,1.63867 22.15039,1.63867 17.67417,0 28.25782,-5.67206 28.25782,-21.05859 0,-9.05825 -3.59711,-14.2953 -11.56446,-16.80274 v -0.43554 c 5.8941,-2.17908 9.92969,-6.76908 9.92969,-15.05664 0,-13.64165 -10.8012,-19.09766 -26.73047,-19.09766 z m -0.11133,12.00195 c 7.8588,0 12.87305,1.42231 12.87305,9.0586 0,6.65392 -3.7083,8.94336 -10.58203,8.94336 h -10.47461 v -17.56446 c 3.16415,-0.32837 6.0018,-0.4375 8.18359,-0.4375 z m -8.18359,28.91602 h 11.01953 c 7.52774,0 11.67578,2.61746 11.67578,9.82227 0,8.29027 -5.45558,9.82031 -14.07422,9.82031 -2.29305,0 -5.23714,-0.10913 -8.62109,-0.4375 z"
               style="fill:#ffffff;stroke-width:8.10867119" />
            <path
               inkscape:connector-curvature="0"
               id="path43"
               transform="matrix(0.12383332,0,0,0.1228183,-3.3604336e-5,0.33324411)"
               d="m 586.6543,717.39844 c -7.63628,20.94956 -15.38761,46.69659 -21.4961,70.26758 h 13.85938 l 3.81445,-15.0586 h 25.53125 l 3.82031,15.0586 h 14.07618 c -6.10849,-23.57099 -13.8571,-49.31802 -21.4961,-70.26758 z m 8.72851,12.54883 h 0.43555 c 3.0556,9.38388 6.32367,20.07457 9.27344,30.875 h -19.09571 c 3.0556,-10.80043 6.32844,-21.49112 9.38672,-30.875 z"
               style="fill:#ffffff;stroke-width:8.10867119" />
            <path
               inkscape:connector-curvature="0"
               id="path57"
               d="m 79.059,88.443 h 1.702 v 7.156 h 3.54 v 1.474 h -5.242 z"
               style="fill:#ffffff" />
          </g>
          <g
             id="g82"
             style="fill:#ffffff">
            <path
               inkscape:connector-curvature="0"
               id="path59"
               d="m 70.700196,36.680444 c -0.516834,-2.562992 -2.171512,-5.905546 -3.608097,-6.15218 0.761474,2.013065 1.371057,4.187775 1.986352,7.839955 0.04133,-0.05999 0.809864,-1.160845 1.621745,-1.687775"
               style="fill:#ffffff" />
            <path
               inkscape:connector-curvature="0"
               id="path61"
               d="m 54.538594,38.367386 c 0.615295,-3.65118 1.224878,-5.824224 1.98736,-7.839289 -1.439609,0.244968 -3.091262,3.591188 -3.609105,6.151514 0.812889,0.528596 1.58142,1.62645 1.621745,1.687775"
               style="fill:#ffffff" />
            <path
               inkscape:connector-curvature="0"
               id="path63"
               d="m 55.365731,39.808127 c 1.878483,4.475737 3.005572,9.328423 3.296922,10.419611 0.322937,-0.449607 1.599566,-1.608452 3.153094,-1.608452 1.555209,0 2.804954,1.158845 3.1289,1.608452 0.289333,-1.091188 1.418439,-5.943874 3.296922,-10.419611 -0.08804,-0.840555 -0.54103,-3.321224 -0.735935,-4.222104 -0.366288,-1.682442 -2.077757,-9.308426 -5.689887,-9.308426 -3.610113,0 -5.348802,7.625984 -5.712401,9.308426 -0.196585,0.90088 -0.649908,3.381549 -0.737615,4.222104"
               style="fill:#ffffff" />
            <path
               inkscape:connector-curvature="0"
               id="path65"
               d="m 75.873084,49.323625 c 0.348813,-1.261498 0.63445,-2.539995 0.847165,-3.830156 0.315545,-2.000733 0.479534,-4.19844 0.295382,-6.394147 -0.51213,-6.08219 -2.877203,-10.826891 -3.594656,-10.924544 -0.595805,-0.08299 -0.481214,1.232835 -0.434168,3.006932 0.04537,1.65078 0.05511,3.642848 -0.08939,5.311625 3.228032,1.180176 3.96968,7.965272 2.975664,12.83029"
               style="fill:#ffffff" />
            <path
               inkscape:connector-curvature="0"
               id="path67"
               d="m 47.759658,49.323625 c -0.994016,-4.865018 -0.252704,-11.650114 2.975665,-12.83029 -0.144835,-1.668777 -0.134082,-3.660845 -0.08972,-5.311625 0.04738,-1.774097 0.163989,-3.089921 -0.433832,-3.006932 -0.717453,0.09765 -3.081854,4.842354 -3.591968,10.924544 -0.186168,2.195707 -0.02319,4.393414 0.292358,6.394147 0.213052,1.290161 0.498353,2.568658 0.847501,3.830156"
               style="fill:#ffffff" />
            <path
               inkscape:connector-curvature="0"
               id="path69"
               d="m 75.030686,57.568926 c 0,0 -0.14181,0.08899 -0.145507,0.02966 -0.0027,-0.03266 0.171719,-0.17431 0.171719,-0.17431 3.934059,-3.088922 5.530937,-8.95514 4.844401,-9.47907 -0.362591,-0.118651 -1.009811,1.302493 -1.941995,3.027596 -0.712412,1.317158 -1.399285,2.173711 -1.399285,2.173711 0,0 -0.06452,0.08332 -0.09712,0.07099 -0.0289,-0.0067 0.01882,-0.09665 0.01882,-0.09665 2.824781,-5.785895 3.143686,-9.863685 3.241139,-11.736435 0.216748,-4.221104 -0.547751,-4.424744 -0.854223,-3.050594 -0.359566,1.594121 -0.780964,3.644515 -1.093485,5.665579 -0.859263,5.573257 -3.269702,11.12585 -5.175067,14.15278 -0.285637,0.441941 -0.525572,0.409279 -0.584716,0.32529 -0.05074,-0.07266 -0.01613,-0.172977 0.157268,-0.494601 5.487588,-10.053993 3.15612,-20.180977 -0.08871,-20.294628 -3.115458,-0.111985 -6.091122,12.057726 -6.438255,13.391881 2.099935,3.556526 2.597951,8.485536 2.449084,9.731703 -0.01344,0.10232 -0.09846,0.183642 -0.207339,0.186642 -0.117279,0.0027 -0.216748,-0.08899 -0.22246,-0.205973 v -0.0027 c 0,-2.266698 -1.736672,-10.905213 -5.818255,-10.905213 -4.085615,0 -5.822287,8.638515 -5.822287,10.905213 v 0.0027 c -0.0047,0.116985 -0.103166,0.208639 -0.221789,0.205973 -0.107198,-0.003 -0.193897,-0.08432 -0.205322,-0.186642 -0.151556,-1.246167 0.347132,-6.175177 2.448075,-9.731703 -0.34814,-1.334155 -3.322796,-13.503866 -6.436238,-13.391881 -3.244835,0.113651 -5.575295,10.240635 -0.09174,20.294628 0.177431,0.321624 0.210363,0.421944 0.158277,0.494601 -0.05881,0.08399 -0.298071,0.116651 -0.582364,-0.32529 -1.907382,-3.02693 -4.317149,-8.579523 -5.175403,-14.15278 -0.311512,-2.021064 -0.737616,-4.071458 -1.093485,-5.665579 -0.308488,-1.37415 -1.071979,-1.17051 -0.856239,3.050594 0.09745,1.87275 0.415686,5.95054 3.24013,11.736435 0,0 0.04705,0.08999 0.02117,0.09665 -0.03562,0.01233 -0.09947,-0.07099 -0.09947,-0.07099 0,0 -0.686537,-0.856553 -1.398948,-2.173711 -0.932521,-1.725103 -1.576716,-3.146247 -1.940987,-3.027596 -0.688553,0.52393 0.910006,6.390148 4.843393,9.47907 0,0 0.176423,0.141648 0.174407,0.17431 -0.0037,0.05933 -0.148532,-0.02966 -0.148532,-0.02966 -1.529333,-0.934542 -3.585246,-3.031596 -3.922298,-2.283029 -0.244303,0.866551 2.92929,4.553393 8.028076,6.400147 0,0 0.352174,0.117651 0.352174,0.185642 0,0.06766 -0.217084,0.0027 -0.217084,0.0027 -0.731903,-0.223637 -3.11277,-1.132182 -3.726721,-1.046194 -0.664358,0.08966 -0.282613,0.555593 0.345116,1.10152 0.62,0.540595 3.485778,2.238035 7.433279,2.517998 0.03092,0.355286 1.402309,1.588788 4.887079,1.588788 3.48645,0 4.869268,-1.233502 4.899176,-1.588788 3.947502,-0.279963 6.812607,-1.977403 7.433279,-2.517998 0.628737,-0.545927 1.012835,-1.011865 0.347469,-1.10152 -0.615295,-0.08599 -2.997843,0.822557 -3.726721,1.046194 0,0 -0.220108,0.06499 -0.220108,-0.0027 0.0027,-0.06799 0.352845,-0.185642 0.352845,-0.185642 5.10013,-1.846754 8.273388,-5.533596 8.027404,-6.400147 -0.336379,-0.748567 -2.392293,1.348487 -3.921626,2.283029"
               style="fill:#ffffff" />
          </g>
        </g>
      </g>
    </g>
  </g>
</svg>
