<svg width="197" height="48" viewBox="0 0 197 48" fill="none" xmlns="http://www.w3.org/2000/svg">
<g clip-path="url(#clip0_5920_774)">
<path d="M191.888 32.7467V26.24H189.119V25.1733H196.147V26.24H193.485V32.7467H191.888Z" fill="#0077B3"/>
<path d="M13.631 46.7199L0.533203 11.0933H8.4132L18.6359 38.6133L28.5391 11.0933H33.757L21.0851 46.7199H13.631Z" fill="#333333"/>
<path d="M38.1221 11.0933H45.4697V32.9599C45.4697 36.9066 46.1086 39.4666 47.4929 40.8533C48.8772 42.1333 50.581 42.7733 52.7108 42.7733C54.8405 42.7733 56.4378 42.1333 57.7156 40.8533C58.9935 39.5733 59.5259 37.1199 59.5259 33.4933V11.0933H65.9151V32.9599C65.9151 37.1199 65.3827 39.9999 64.3178 41.8133C63.2529 43.6266 61.7621 45.0133 59.8454 46.0799C57.9286 47.1466 55.3729 47.5733 52.3913 47.5733C49.4097 47.5733 46.9605 47.1466 44.8308 46.1866C42.701 45.2266 40.9972 43.8399 39.8259 41.9199C38.5481 39.9999 38.0156 37.0133 38.0156 32.9599V11.0933H38.1221Z" fill="#333333"/>
<path d="M76.1387 37.9731V38.9331L76.4581 38.7198C76.3516 38.5065 76.3516 38.1865 76.2452 37.9731H76.1387Z" fill="white"/>
<path d="M80.8242 27.5202C80.8242 27.4135 80.9307 27.2002 81.1437 27.2002C81.2502 27.2002 81.4631 27.3069 81.4631 27.5202C81.4631 27.6269 81.3566 27.8402 81.1437 27.8402C80.9307 27.8402 80.8242 27.7335 80.8242 27.5202Z" fill="#0077B3"/>
<path d="M98.3928 36.1599C97.9669 34.9866 96.7955 34.2399 95.3047 34.3466C94.4528 32.7466 93.0685 33.4932 92.6426 33.9199C93.0685 34.3466 93.388 34.4532 93.9204 34.5599V34.8799C92.962 34.8799 92.6426 34.4532 92.0037 33.7066C91.6842 36.0532 94.4528 36.9066 95.3047 34.9866C96.5826 34.9866 97.4345 35.5199 97.6474 36.3732C97.9669 37.2266 97.6474 38.0799 97.2215 38.5066C96.4761 39.4666 95.1983 39.4666 94.0269 38.8266C93.2815 38.5066 92.5361 37.7599 91.8972 37.0132C90.9388 35.9466 90.4064 35.4132 89.6609 35.0932C89.235 34.8799 88.8091 34.7732 88.4896 34.7732C88.2766 34.7732 88.0637 34.6666 87.7442 34.6666C87.5312 34.6666 87.3183 34.6666 87.1053 34.7732C85.4015 34.9866 83.6977 35.7332 81.6745 35.9466H80.6096C79.9707 36.5866 79.3318 37.1199 78.7993 37.5466L77.5215 38.6132C76.9891 39.1466 76.6696 39.3599 76.6696 39.3599C76.7761 40.5332 76.8826 41.1732 76.8826 42.2399C76.8826 43.1999 76.8826 43.6266 76.8826 43.9466C76.8826 44.3732 76.7761 44.6932 76.6696 45.0132C76.5631 45.3332 76.3501 45.5466 75.9242 45.5466C75.6047 45.6532 74.7528 45.0132 74.4334 45.4399C74.2204 45.7599 74.4334 46.5066 74.7528 46.7199H77.0955C77.415 46.1866 77.5215 45.7599 77.628 45.4399C77.841 45.1199 77.9474 44.6932 78.1604 44.4799C78.3734 44.1599 78.4799 43.8399 78.5864 43.5199C78.5864 43.1999 78.6928 42.9866 78.7993 42.7732C79.0123 42.3466 79.2253 41.9199 79.3318 41.7066C79.3318 41.5999 79.4382 41.5999 79.4382 41.4932C79.5447 41.5999 79.6512 41.8132 79.6512 41.9199C80.1837 42.7732 80.7161 43.4132 81.4615 43.7332C81.781 43.8399 81.9939 44.0532 82.1004 44.1599C82.2069 44.2666 82.2069 44.5866 82.2069 44.9066C82.2069 45.2266 82.1004 45.5466 81.781 45.6532C81.2485 45.8666 80.5031 45.1199 80.1837 45.5466C79.8642 45.8666 80.1837 46.3999 80.5031 46.8266H82.6328C83.1653 45.9732 83.3783 44.9066 83.3783 43.9466C83.3783 42.9866 83.3782 42.7732 82.7393 42.4532C82.5264 42.3466 82.3134 41.8132 82.2069 41.3866C82.2069 41.2799 82.2069 41.2799 82.2069 41.0666C83.1653 40.7466 84.3366 40.1066 85.508 39.2532C85.508 39.4666 85.508 39.5732 85.508 39.7866C85.721 41.1732 85.8274 42.3466 86.8923 43.3066C87.2118 43.6266 87.4247 43.8399 87.4247 44.0532C87.4247 44.1599 87.3183 44.5866 87.1053 44.7999C86.8923 45.3332 86.3599 45.7599 85.9339 45.7599C85.4015 45.8666 84.8691 45.1199 84.4431 45.5466C84.1237 45.8666 84.5496 46.6132 84.7626 46.8266H86.8923C87.6377 45.5466 88.5961 44.4799 88.9155 43.7332C89.1285 43.1999 89.1285 42.9866 88.7026 42.8799C87.9572 42.4532 88.0637 41.5999 88.2766 40.6399C88.2766 40.4266 88.3831 40.3199 88.4896 40.1066C89.022 41.5999 89.7674 42.9866 91.3647 43.4132C91.6842 43.4132 92.0037 43.6266 92.1101 43.7332C92.1101 43.8399 92.1101 44.1599 92.1101 44.3732C92.0037 44.7999 91.7907 45.4399 91.3647 45.6532C90.9388 45.9732 89.9804 44.9066 89.6609 45.5466C89.448 45.9732 89.8739 46.6132 89.9804 46.8266H92.1101C92.6426 45.5466 93.175 44.3732 93.388 43.5199C93.4945 42.5599 93.4945 42.1332 92.7491 42.0266C92.3231 42.0266 92.0037 41.8132 91.8972 41.2799C91.5777 40.3199 91.6842 38.6132 90.9388 37.5466C91.7907 38.5066 92.6426 39.2532 93.4945 39.6799C95.3047 40.6399 97.2215 40.3199 98.0734 39.0399C98.6058 37.9732 98.6058 36.9066 98.3928 36.1599Z" fill="#0077B3"/>
<path d="M116.39 11.3067C114.792 11.0934 111.172 11.5201 107.977 12.1601C109.894 11.2001 110.533 10.9867 111.172 10.5601C111.385 10.4534 111.491 10.1334 111.491 9.70674C111.491 9.28007 111.065 9.1734 110.533 9.28007C110 9.28007 108.936 9.70674 107.551 10.1334C104.889 11.2001 101.056 13.0134 96.4766 16.1067C92.4301 18.8801 89.768 21.2267 86.8928 24.1067C86.1474 24.8534 85.2955 25.8134 84.3372 26.8801C84.2307 26.6667 84.1242 26.5601 83.8047 26.6667C84.8696 24.3201 84.9761 24.2134 85.5085 22.9334C85.7215 22.2934 85.615 21.8667 85.402 21.5467C85.0826 21.0134 84.6566 21.3334 84.3372 21.5467C83.9112 22.0801 83.8047 22.1867 82.8464 23.3601C84.0177 19.4134 84.6566 19.0934 85.7215 16.8534C85.828 16.5334 85.828 16.1067 85.7215 15.7867C85.615 15.4667 85.402 15.3601 85.1891 15.4667C84.7631 15.6801 84.6566 15.8934 83.8047 16.8534C84.9761 14.6134 86.5734 11.9467 86.7864 11.5201C86.9993 11.0934 87.2123 10.9867 86.7864 10.2401C86.3604 9.60007 86.041 10.1334 85.7215 10.3467C85.5085 10.4534 84.9761 10.9867 84.2307 11.9467C85.9345 8.74674 87.5318 7.2534 87.8512 6.72007C88.2772 6.08007 88.2772 5.9734 87.9577 5.22674C87.6382 4.58674 87.1058 4.90674 86.8928 5.22674C85.7215 6.40007 85.7215 6.08007 83.6982 8.5334C84.7631 5.76007 86.5734 3.62674 87.2123 2.56007C87.5318 2.1334 87.5318 1.92007 87.2123 0.960068C87.1058 0.533402 86.6799 0.320068 86.2539 0.320068C85.7215 0.533402 85.1891 0.853402 84.1242 1.8134C81.888 3.84007 78.9064 6.72007 76.4572 11.9467C74.1145 16.8534 73.582 21.4401 73.582 24.6401C73.582 29.5467 74.8599 33.8134 76.0312 36.5867C76.0312 36.4801 76.0312 36.3734 76.0312 36.2667C75.9247 34.9867 76.1377 33.3867 76.4572 32.6401C76.9896 30.7201 77.6285 29.6534 78.161 28.8001L77.2026 27.5201L78.4804 27.9467L77.735 26.2401C77.735 26.2401 78.6934 26.3467 79.4388 27.3067C79.8647 26.8801 80.8231 26.5601 81.675 27.2001C82.3139 27.2001 82.6334 27.3067 82.9528 27.4134C83.5918 27.8401 83.4853 28.4801 83.4853 28.6934C83.1658 28.3734 82.1009 27.7334 81.1426 28.5867L83.0593 29.2267L80.6101 29.4401V32.0001L77.6285 34.6667V35.6267L79.6518 33.8134V34.7734L76.1377 37.9734V38.9334L80.6101 34.8801L81.7815 33.9201C82.4204 33.3867 82.7399 33.0667 83.1658 32.8534C83.5918 32.5334 83.6982 32.8534 83.8047 33.3867C83.9112 33.8134 84.4437 34.2401 85.5085 33.2801C88.5966 30.4001 91.8977 28.9067 95.4118 27.2001C93.495 28.4801 90.0874 30.4001 88.9161 31.6801C88.3837 32.3201 88.9161 33.7067 89.768 33.0667C91.2588 32.1067 93.1755 31.8934 94.2404 32.0001C94.6664 32.0001 95.1988 31.6801 95.5182 31.2534C95.8377 30.9334 95.8377 30.5067 95.1988 30.5067C98.3934 29.5467 99.2453 29.2267 101.907 29.0134C102.653 29.0134 103.079 28.5867 103.185 27.9467C103.292 27.4134 103.079 27.2001 102.333 27.2001C101.588 27.0934 100.204 27.3067 98.8193 27.5201C101.907 26.2401 105.634 25.4934 108.616 24.6401C109.574 24.3201 109.681 24.1067 109.681 23.5734C109.787 22.9334 109.361 22.9334 108.297 22.9334C106.167 23.0401 102.972 23.2534 98.0739 24.6401C102.653 22.2934 105.315 21.2267 109.468 20.1601C110.639 19.8401 110.746 19.5201 110.852 18.9867C111.065 18.3467 110.533 18.3467 110.107 18.3467C109.468 18.3467 108.084 18.3467 105.209 19.2001C107.977 18.0267 111.065 16.5334 113.195 15.8934C113.621 15.6801 113.94 15.4667 113.94 14.9334C113.94 14.5067 113.834 14.5067 113.408 14.5067C112.45 14.5067 110.959 14.8267 109.149 15.3601C112.876 13.7601 114.047 13.2267 116.603 12.8001C117.454 12.5867 117.561 12.3734 117.667 11.8401C117.348 11.3067 116.922 11.3067 116.39 11.3067ZM79.0128 24.1067C79.0128 23.7867 78.7999 23.5734 78.5869 23.4667C79.1193 22.0801 79.6518 21.1201 80.7166 19.6267C79.7583 21.5467 79.3323 23.2534 79.0128 24.1067ZM75.6053 22.9334C76.3507 14.9334 79.9712 9.06674 82.4204 6.2934C78.9064 11.6267 76.8831 18.9867 75.6053 22.9334ZM88.9161 25.2801C93.6015 20.8001 99.9907 16.1067 108.084 14.1867C101.269 16.5334 91.8977 22.9334 88.9161 25.2801Z" fill="#0077B3"/>
<path d="M126.612 18.88L123.844 11.2H125.548L127.677 17.1733L129.807 11.2H130.978L128.21 18.88H126.612Z" fill="#0077B3"/>
<path d="M133.428 14.72H133.748C134.387 14.72 134.813 14.6133 135.132 14.2933C135.345 13.9733 135.558 13.6533 135.558 13.3333C135.558 13.0133 135.452 12.8 135.239 12.5866C135.026 12.3733 134.6 12.2666 133.961 12.2666H133.428V14.72ZM131.938 18.88V11.3066H134.813C135.345 11.3066 135.878 11.4133 136.09 11.52C136.41 11.6266 136.623 11.84 136.836 12.16C137.049 12.48 137.049 12.8 137.049 13.12C137.049 13.5466 136.942 13.9733 136.623 14.4C136.41 14.8266 135.984 15.1466 135.558 15.36L138.007 18.88H136.09L134.174 15.7866H133.322V18.88H131.938Z" fill="#0077B3"/>
<path d="M140.775 11.2H139.178V18.7733H140.775V11.2Z" fill="#0077B3"/>
<path d="M141.414 20.1599V18.9866C141.84 19.1999 142.266 19.1999 142.692 19.1999C142.905 19.1999 143.011 19.1999 143.224 19.0933C143.331 18.9866 143.437 18.8799 143.544 18.7733C143.65 18.6666 143.65 18.3466 143.65 17.8133V11.0933H145.248V17.5999C145.248 18.3466 145.141 18.8799 145.035 19.1999C144.822 19.5199 144.609 19.8399 144.289 19.9466C143.97 20.1599 143.437 20.2666 142.905 20.2666C142.266 20.3733 141.84 20.3733 141.414 20.1599Z" fill="#0077B3"/>
<path d="M147.059 18.8802V11.2002H151.957V12.2669H148.656V14.4002H151.425V15.4669H148.656V17.8135H152.17V18.8802H147.059Z" fill="#0077B3"/>
<path d="M124.59 25.1733H126.187V29.8667C126.187 30.72 126.294 31.2533 126.613 31.5733C126.933 31.8933 127.252 32 127.678 32C128.104 32 128.53 31.8933 128.743 31.5733C128.956 31.2533 129.169 30.8267 129.169 29.9733V25.1733H130.553V29.8667C130.553 30.72 130.447 31.36 130.234 31.7867C130.021 32.2133 129.701 32.4267 129.275 32.64C128.849 32.8533 128.317 32.96 127.678 32.96C127.039 32.96 126.507 32.8533 126.081 32.64C125.655 32.4267 125.229 32.1067 125.016 31.68C124.803 31.2533 124.59 30.6133 124.59 29.76V25.1733Z" fill="#0077B3"/>
<path d="M132.469 32.7467V25.1733H133.853L137.367 30.4V25.1733H138.645V32.7467H137.261L133.747 27.6267V32.7467H132.469Z" fill="#0077B3"/>
<path d="M142.265 25.1733H140.668V32.7467H142.265V25.1733Z" fill="#0077B3"/>
<path d="M146.099 32.7467L143.33 25.1733H145.034L147.164 31.04L149.293 25.1733H150.465L147.696 32.7467H146.099Z" fill="#0077B3"/>
<path d="M151.316 32.7467V25.1733H156.108V26.24H152.914V28.3733H155.576V29.3333H152.914V31.68H156.428V32.7467H151.316Z" fill="#0077B3"/>
<path d="M159.198 28.5867H159.517C160.156 28.5867 160.582 28.48 160.902 28.16C161.115 27.84 161.328 27.52 161.328 27.2C161.328 26.88 161.221 26.6667 161.008 26.4533C160.795 26.24 160.369 26.1333 159.73 26.1333H159.198V28.5867ZM157.707 32.7467V25.1733H160.582C161.115 25.1733 161.647 25.28 161.86 25.3867C162.179 25.4933 162.392 25.7067 162.605 26.0267C162.818 26.3467 162.818 26.6667 162.818 26.9867C162.818 27.4133 162.712 27.84 162.392 28.2667C162.179 28.6933 161.754 29.0133 161.328 29.12L163.777 32.64H161.86L159.943 29.5467H159.091V32.64H157.707V32.7467Z" fill="#0077B3"/>
<path d="M164.309 32.7466V31.4666C164.948 31.68 165.373 31.8933 165.693 31.8933C166.012 31.8933 166.225 32 166.545 32C166.971 32 167.29 31.8933 167.503 31.68C167.716 31.4666 167.823 31.2533 167.823 30.9333C167.823 30.72 167.716 30.5066 167.61 30.4C167.503 30.1866 167.184 29.9733 166.758 29.76L166.225 29.44C165.48 29.0133 164.948 28.6933 164.735 28.2666C164.522 27.9466 164.309 27.52 164.309 27.0933C164.309 26.56 164.522 26.0266 164.948 25.6C165.373 25.1733 166.012 24.96 166.864 24.96C167.503 24.96 168.142 25.0666 168.888 25.1733V26.3466C168.142 26.0266 167.503 25.92 166.971 25.92C166.545 25.92 166.332 26.0266 166.119 26.1333C165.906 26.3466 165.799 26.4533 165.799 26.7733C165.799 26.9866 165.906 27.0933 166.012 27.3066C166.119 27.4133 166.438 27.6266 166.864 27.9466L167.397 28.2666C168.249 28.6933 168.781 29.12 168.994 29.44C169.207 29.76 169.313 30.1866 169.313 30.6133C169.313 31.2533 169.1 31.7866 168.568 32.2133C168.142 32.64 167.29 32.8533 166.332 32.8533C165.906 32.96 165.16 32.8533 164.309 32.7466Z" fill="#0077B3"/>
<path d="M172.402 25.1733H170.805V32.7467H172.402V25.1733Z" fill="#0077B3"/>
<path d="M175.702 32.7467V26.24H172.934V25.1733H179.962V26.24H177.193V32.7467H175.702Z" fill="#0077B3"/>
<path d="M180.602 32.7467V25.1733H185.393V26.24H182.092V28.3733H184.861V29.3333H182.092V31.68H185.713V32.7467H180.602Z" fill="#0077B3"/>
<path d="M188.588 25.1733H186.99V32.7467H188.588V25.1733Z" fill="#0077B3"/>
<path d="M126.186 43.6267H128.529L127.358 40.6401L126.186 43.6267ZM123.844 46.7201L126.825 39.1467H128.423L131.404 46.7201H129.807L129.062 44.6934H125.867L125.122 46.7201H123.844Z" fill="#0077B3"/>
<path d="M132.363 46.72V39.04H134.387L136.303 44.48L138.114 39.04H140.03V46.72H138.54V40.96L136.623 46.1867H135.345L133.535 40.8534V46.72H132.363Z" fill="#0077B3"/>
<path d="M141.521 46.6133V45.3333C142.159 45.5467 142.585 45.76 142.798 45.76C143.118 45.76 143.331 45.8667 143.65 45.8667C144.076 45.8667 144.396 45.76 144.609 45.5467C144.822 45.3333 144.928 45.12 144.928 44.8C144.928 44.5867 144.822 44.3733 144.715 44.2667C144.609 44.0533 144.289 43.84 143.863 43.6267L143.331 43.3067C142.585 42.88 142.053 42.56 141.84 42.1333C141.627 41.8133 141.414 41.3867 141.414 40.96C141.414 40.4267 141.627 39.8933 142.053 39.4667C142.479 39.04 143.118 38.8267 143.97 38.8267C144.609 38.8267 145.248 38.9333 145.993 39.04V40.2133C145.248 39.8933 144.609 39.7867 144.076 39.7867C143.65 39.7867 143.437 39.8933 143.224 40C143.011 40.2133 142.905 40.32 142.905 40.64C142.905 40.8533 143.011 40.96 143.118 41.1733C143.224 41.28 143.544 41.4933 143.97 41.8133L144.502 42.1333C145.354 42.56 145.886 42.9867 146.099 43.4133C146.312 43.7333 146.419 44.16 146.419 44.5867C146.419 45.2267 146.206 45.76 145.674 46.1867C145.248 46.6133 144.396 46.8267 143.437 46.8267C143.118 46.8267 142.372 46.8267 141.521 46.6133Z" fill="#0077B3"/>
<path d="M149.295 46.72V40.1067H146.633V39.04H153.661V40.1067H150.892V46.72H149.295Z" fill="#0077B3"/>
<path d="M154.299 46.72V39.04H159.091V40.1067H155.896V42.24H158.558V43.3067H155.896V45.6534H159.41V46.72H154.299Z" fill="#0077B3"/>
<path d="M162.073 42.5598H162.392C163.031 42.5598 163.457 42.4532 163.777 42.1332C163.99 41.8132 164.096 41.4931 164.096 41.1731C164.096 40.8531 163.99 40.6398 163.777 40.4265C163.564 40.2132 163.138 40.1065 162.499 40.1065H161.966V42.5598H162.073ZM160.582 46.7198V39.1465H163.457C163.99 39.1465 164.522 39.2532 164.841 39.3598C165.161 39.4665 165.374 39.6798 165.587 39.9998C165.8 40.3198 165.906 40.6398 165.906 40.9598C165.906 41.3865 165.8 41.8131 165.48 42.2398C165.267 42.6665 164.841 42.9865 164.416 43.1998L166.865 46.7198H164.948L163.031 43.6265H162.179V46.7198H160.582Z" fill="#0077B3"/>
<path d="M169.207 45.6531H170.378C171.017 45.6531 171.443 45.5465 171.762 45.3331C172.082 45.1198 172.295 44.7998 172.508 44.3731C172.721 43.9465 172.827 43.4132 172.827 42.8798C172.827 42.3465 172.721 41.8132 172.508 41.4932C172.295 41.0665 172.082 40.7465 171.762 40.5332C171.443 40.3198 170.91 40.2132 170.059 40.2132H169.1V45.6531H169.207ZM167.609 46.7198V39.1465H170.91C171.762 39.1465 172.508 39.2531 172.934 39.5731C173.466 39.8931 173.786 40.3198 174.105 40.8531C174.425 41.3865 174.531 42.0265 174.531 42.8798C174.531 43.6265 174.425 44.2665 174.105 44.9065C173.786 45.5465 173.466 45.9732 172.934 46.2932C172.401 46.6132 171.656 46.8265 170.804 46.8265H167.609V46.7198Z" fill="#0077B3"/>
<path d="M176.981 43.6265H179.324L178.153 40.6398L176.981 43.6265ZM174.639 46.7198L177.62 39.1465H179.218L182.199 46.7198H180.602L179.857 44.6932H176.662L175.917 46.7198H174.639Z" fill="#0077B3"/>
<path d="M182.943 46.72V39.04H185.073L186.883 44.48L188.8 39.04H190.61V46.72H189.12V40.96L187.309 46.1867H186.031L184.221 40.8534V46.72H182.943Z" fill="#0077B3"/>
</g>
<defs>
<clipPath id="clip0_5920_774">
<rect width="197" height="48" fill="white"/>
</clipPath>
</defs>
</svg>
